<svg viewBox="0 0 50 316" fill="none" xmlns="http://www.w3.org/2000/svg">
<path d="M42.8361 306.851C28.9672 318.875 22.0328 319.223 8.16394 306.851C-1.64379 298.102 2.42006 284.298 5.64102 276.964C7.03576 273.789 10.2758 272 13.7443 272H37.2106C40.7035 272 43.9621 273.814 45.3544 277.017C48.5761 284.429 52.6484 298.344 42.8361 306.851Z" fill="#A77846"/>
<path d="M42.8361 306.851C28.9672 318.875 22.0328 319.223 8.16394 306.851C-1.64379 298.102 2.42006 284.298 5.64102 276.964C7.03576 273.789 10.2758 272 13.7443 272H37.2106C40.7035 272 43.9621 273.814 45.3544 277.017C48.5761 284.429 52.6484 298.344 42.8361 306.851Z" fill="url(#paint0_linear_2_55)" fill-opacity="0.2"/>
<rect x="13" y="259" width="25" height="12" fill="#48240F"/>
<rect x="13" y="259" width="25" height="12" fill="url(#paint1_linear_2_55)" fill-opacity="0.2"/>
<rect width="50" height="200" rx="10" transform="matrix(1 0 0 -1 0 258)" fill="#F5CF95"/>
<rect width="50" height="200" rx="10" transform="matrix(1 0 0 -1 0 258)" fill="url(#paint2_linear_2_55)" fill-opacity="0.2"/>
<rect x="13" y="45.0001" width="25" height="12" fill="#48240F"/>
<rect x="13" y="45.0001" width="25" height="12" fill="url(#paint3_linear_2_55)" fill-opacity="0.2"/>
<path d="M8.16394 9.14896C22.0328 -2.87468 28.9672 -3.22322 42.8361 9.14896C52.6438 17.8983 48.5799 31.7019 45.359 39.0358C43.9642 42.2115 40.7242 44.0001 37.2557 44.0001H13.7894C10.2965 44.0001 7.03791 42.1863 5.64557 38.9829C2.42389 31.5707 -1.6484 17.6558 8.16394 9.14896Z" fill="#A77846"/>
<path d="M8.16394 9.14896C22.0328 -2.87468 28.9672 -3.22322 42.8361 9.14896C52.6438 17.8983 48.5799 31.7019 45.359 39.0358C43.9642 42.2115 40.7242 44.0001 37.2557 44.0001H13.7894C10.2965 44.0001 7.03791 42.1863 5.64557 38.9829C2.42389 31.5707 -1.6484 17.6558 8.16394 9.14896Z" fill="url(#paint4_linear_2_55)" fill-opacity="0.2"/>
<defs>
<linearGradient id="paint0_linear_2_55" x1="2" y1="294" x2="49" y2="294" gradientUnits="userSpaceOnUse">
<stop stop-color="white" stop-opacity="0"/>
<stop offset="1"/>
</linearGradient>
<linearGradient id="paint1_linear_2_55" x1="13" y1="265" x2="38" y2="265" gradientUnits="userSpaceOnUse">
<stop stop-color="white" stop-opacity="0"/>
<stop offset="1"/>
</linearGradient>
<linearGradient id="paint2_linear_2_55" x1="50" y1="100" x2="0" y2="100" gradientUnits="userSpaceOnUse">
<stop/>
<stop offset="1" stop-color="white" stop-opacity="0"/>
</linearGradient>
<linearGradient id="paint3_linear_2_55" x1="13" y1="51.0001" x2="38" y2="51.0001" gradientUnits="userSpaceOnUse">
<stop stop-color="white" stop-opacity="0"/>
<stop offset="1"/>
</linearGradient>
<linearGradient id="paint4_linear_2_55" x1="2" y1="22.0001" x2="49" y2="22.0001" gradientUnits="userSpaceOnUse">
<stop stop-color="#FFFDFD" stop-opacity="0"/>
<stop offset="1"/>
</linearGradient>
</defs>
</svg>
