<svg width="376" height="316" viewBox="0 0 376 316" fill="none" xmlns="http://www.w3.org/2000/svg">
<path d="M333.164 306.851C347.033 318.875 353.967 319.223 367.836 306.851C377.644 298.102 373.58 284.298 370.359 276.964C368.964 273.789 365.724 272 362.256 272H338.789C335.296 272 332.038 273.814 330.646 277.017C327.424 284.429 323.352 298.344 333.164 306.851Z" fill="#A77846"/>
<path d="M333.164 306.851C347.033 318.875 353.967 319.223 367.836 306.851C377.644 298.102 373.58 284.298 370.359 276.964C368.964 273.789 365.724 272 362.256 272H338.789C335.296 272 332.038 273.814 330.646 277.017C327.424 284.429 323.352 298.344 333.164 306.851Z" fill="url(#paint0_linear_2_68)" fill-opacity="0.2"/>
<rect width="25" height="12" transform="matrix(-1 0 0 1 363 259)" fill="#48240F"/>
<rect width="25" height="12" transform="matrix(-1 0 0 1 363 259)" fill="url(#paint1_linear_2_68)" fill-opacity="0.2"/>
<rect x="376" y="258" width="50" height="200" rx="10" transform="rotate(180 376 258)" fill="#F5CF95"/>
<rect x="376" y="258" width="50" height="200" rx="10" transform="rotate(180 376 258)" fill="url(#paint2_linear_2_68)" fill-opacity="0.2"/>
<rect width="25" height="12" transform="matrix(-1 0 0 1 363 45)" fill="#48240F"/>
<rect width="25" height="12" transform="matrix(-1 0 0 1 363 45)" fill="url(#paint3_linear_2_68)" fill-opacity="0.2"/>
<path d="M367.836 9.14893C353.967 -2.87471 347.033 -3.22325 333.164 9.14893C323.356 17.8982 327.42 31.7019 330.641 39.0358C332.036 42.2115 335.276 44 338.744 44H362.211C365.704 44 368.962 42.1862 370.354 38.9828C373.576 31.5706 377.648 17.6558 367.836 9.14893Z" fill="#A77846"/>
<path d="M367.836 9.14893C353.967 -2.87471 347.033 -3.22325 333.164 9.14893C323.356 17.8982 327.42 31.7019 330.641 39.0358C332.036 42.2115 335.276 44 338.744 44H362.211C365.704 44 368.962 42.1862 370.354 38.9828C373.576 31.5706 377.648 17.6558 367.836 9.14893Z" fill="url(#paint4_linear_2_68)" fill-opacity="0.2"/>
<rect x="50" y="67" width="276" height="182" fill="#CFAF80"/>
<rect x="50" y="81" width="276" height="153" fill="#FCF4D4"/>
<path d="M42.8361 306.851C28.9672 318.875 22.0328 319.223 8.16394 306.851C-1.64379 298.102 2.42006 284.298 5.64102 276.964C7.03576 273.789 10.2758 272 13.7443 272H37.2106C40.7035 272 43.9621 273.814 45.3544 277.017C48.5761 284.429 52.6484 298.344 42.8361 306.851Z" fill="#A77846"/>
<path d="M42.8361 306.851C28.9672 318.875 22.0328 319.223 8.16394 306.851C-1.64379 298.102 2.42006 284.298 5.64102 276.964C7.03576 273.789 10.2758 272 13.7443 272H37.2106C40.7035 272 43.9621 273.814 45.3544 277.017C48.5761 284.429 52.6484 298.344 42.8361 306.851Z" fill="url(#paint5_linear_2_68)" fill-opacity="0.2"/>
<rect x="13" y="259" width="25" height="12" fill="#48240F"/>
<rect x="13" y="259" width="25" height="12" fill="url(#paint6_linear_2_68)" fill-opacity="0.2"/>
<rect width="50" height="200" rx="10" transform="matrix(1 0 0 -1 0 258)" fill="#F5CF95"/>
<rect width="50" height="200" rx="10" transform="matrix(1 0 0 -1 0 258)" fill="url(#paint7_linear_2_68)" fill-opacity="0.2"/>
<rect x="13" y="45" width="25" height="12" fill="#48240F"/>
<rect x="13" y="45" width="25" height="12" fill="url(#paint8_linear_2_68)" fill-opacity="0.2"/>
<path d="M8.16394 9.14893C22.0328 -2.87471 28.9672 -3.22325 42.8361 9.14893C52.6438 17.8982 48.5799 31.7019 45.359 39.0358C43.9642 42.2115 40.7242 44 37.2557 44H13.7894C10.2965 44 7.03791 42.1862 5.64557 38.9828C2.42389 31.5706 -1.6484 17.6558 8.16394 9.14893Z" fill="#A77846"/>
<path d="M8.16394 9.14893C22.0328 -2.87471 28.9672 -3.22325 42.8361 9.14893C52.6438 17.8982 48.5799 31.7019 45.359 39.0358C43.9642 42.2115 40.7242 44 37.2557 44H13.7894C10.2965 44 7.03791 42.1862 5.64557 38.9828C2.42389 31.5706 -1.6484 17.6558 8.16394 9.14893Z" fill="url(#paint9_linear_2_68)" fill-opacity="0.2"/>
<defs>
<linearGradient id="paint0_linear_2_68" x1="374" y1="294" x2="327" y2="294" gradientUnits="userSpaceOnUse">
<stop stop-color="white" stop-opacity="0"/>
<stop offset="1"/>
</linearGradient>
<linearGradient id="paint1_linear_2_68" x1="0" y1="6" x2="25" y2="6" gradientUnits="userSpaceOnUse">
<stop stop-color="white" stop-opacity="0"/>
<stop offset="1"/>
</linearGradient>
<linearGradient id="paint2_linear_2_68" x1="426" y1="358" x2="376" y2="358" gradientUnits="userSpaceOnUse">
<stop/>
<stop offset="1" stop-color="white" stop-opacity="0"/>
</linearGradient>
<linearGradient id="paint3_linear_2_68" x1="0" y1="6" x2="25" y2="6" gradientUnits="userSpaceOnUse">
<stop stop-color="white" stop-opacity="0"/>
<stop offset="1"/>
</linearGradient>
<linearGradient id="paint4_linear_2_68" x1="374" y1="22" x2="327" y2="22" gradientUnits="userSpaceOnUse">
<stop stop-color="#FFFDFD" stop-opacity="0"/>
<stop offset="1"/>
</linearGradient>
<linearGradient id="paint5_linear_2_68" x1="2" y1="294" x2="49" y2="294" gradientUnits="userSpaceOnUse">
<stop stop-color="white" stop-opacity="0"/>
<stop offset="1"/>
</linearGradient>
<linearGradient id="paint6_linear_2_68" x1="13" y1="265" x2="38" y2="265" gradientUnits="userSpaceOnUse">
<stop stop-color="white" stop-opacity="0"/>
<stop offset="1"/>
</linearGradient>
<linearGradient id="paint7_linear_2_68" x1="50" y1="100" x2="0" y2="100" gradientUnits="userSpaceOnUse">
<stop/>
<stop offset="1" stop-color="white" stop-opacity="0"/>
</linearGradient>
<linearGradient id="paint8_linear_2_68" x1="13" y1="51" x2="38" y2="51" gradientUnits="userSpaceOnUse">
<stop stop-color="white" stop-opacity="0"/>
<stop offset="1"/>
</linearGradient>
<linearGradient id="paint9_linear_2_68" x1="2" y1="22" x2="49" y2="22" gradientUnits="userSpaceOnUse">
<stop stop-color="#FFFDFD" stop-opacity="0"/>
<stop offset="1"/>
</linearGradient>
</defs>
</svg>
